<?xml version="1.0" encoding="utf-8"?>
<!-- Generator: Adobe Illustrator 20.1.0, SVG Export Plug-In . SVG Version: 6.00 Build 0)  -->
<svg version="1.1" id="Layer_1" xmlns="http://www.w3.org/2000/svg" xmlns:xlink="http://www.w3.org/1999/xlink" x="0px" y="0px"
	 viewBox="0 0 2580 1800" style="enable-background:new 0 0 2580 1800;" xml:space="preserve">
<style type="text/css">
	.st0{fill:url(#SVGID_1_);}
	.st1{fill:#C24C92;}
	.st2{font-family:'DeathRattleBB';}
	.st3{font-size:112.2827px;}
	.st4{font-size:105.7818px;}
</style>
<g>
	<radialGradient id="SVGID_1_" cx="1495.1912" cy="778.4655" r="721.0886" gradientUnits="userSpaceOnUse">
		<stop  offset="0.1777" style="stop-color:#3A6199"/>
		<stop  offset="1" style="stop-color:#332A6D"/>
	</radialGradient>
	<rect x="573" y="343.1" class="st0" width="1844.3" height="870.7"/>
	<path d="M1948.8,711.2c11.2-105.5-40.1-114-40.1-114c68.1-15.3,28.9-64.2,28.9-64.2H981.2c-6.8,5.5-11.2,13-11.2,13v29
		c12,21.5,50.4,22.2,50.4,22.2C982,599,970,643.1,970,643.1v396.5h980.4L1948.8,711.2z M1079.1,959.1c-70.4-9.8-87-102-75-172.8
		c12-70.8,50.7-88.9,82.6-87c32,1.9,10.2,26.2,10.2,26.2c-87,113.2,14.7,216.2,14.7,216.2C1129.2,963.8,1079.1,959.1,1079.1,959.1z
		 M1226.7,821.5c-1.3,45.8-2.6,51.1-9.3,51.8c0,0-38.7,10-56.7-44c0,0-3.3-66,56.7-60C1217.3,769.3,1228,775.7,1226.7,821.5z
		 M1630,916.7h-361.3V725.3H1630V916.7z M1884.7,916.7c0,0-21.3,40-61.3,42s-143.3,0-143.3,0s-3.3,0.7-6-6.7c-2.5-7-0.3-17.6,0-18.6
		c-0.4,0,0-0.1,0-0.1s0,0,0,0.1c0.9-0.1,6.3-1,31.4-6.1c36-7.3,88-43.3,86.7-102.7c-1.3-59.3-30.7-112-118-107.3v-14.7h149.3
		c0,0,54,10,64,46C1887.3,748.7,1928,814.7,1884.7,916.7z M1679.3,769.3c0,0,48-10.7,58,51.7c0,0-4.7,55.7-58,52.3
		C1679.3,873.3,1662.7,814,1679.3,769.3z"/>
	<text transform="matrix(0.8894 0 0 1 1307.0645 810.277)" class="st1 st2 st3">NIte Owl</text>
	<text transform="matrix(1.2267 0 0 1 1334.4731 888.777)" class="st1 st2 st4">Video</text>
</g>
</svg>
