<?xml version="1.0" encoding="utf-8"?>
<!-- Generator: Adobe Illustrator 20.1.0, SVG Export Plug-In . SVG Version: 6.00 Build 0)  -->
<svg version="1.1" id="Layer_1" xmlns="http://www.w3.org/2000/svg" xmlns:xlink="http://www.w3.org/1999/xlink" x="0px" y="0px"
	 viewBox="0 0 2580 1800" style="enable-background:new 0 0 2580 1800;" xml:space="preserve">
<style type="text/css">
	.st0{stroke:#000000;stroke-width:0.75;stroke-miterlimit:10;}
	.st1{fill:#C24C92;}
	.st2{font-family:'DeathRattleBB';}
	.st3{font-size:112.2827px;}
	.st4{font-size:94.0818px;}
	.st5{fill:none;stroke:#000000;stroke-width:0.75;stroke-miterlimit:10;}
</style>
<path class="st0" d="M1794.5,785.1c11.2-105.5-40.1-114-40.1-114c68.1-15.3,28.9-64.2,28.9-64.2H826.9c-6.8,5.5-11.2,13-11.2,13v29
	c12,21.5,50.4,22.2,50.4,22.2c-38.4,1.8-50.4,45.9-50.4,45.9v396.5h980.4L1794.5,785.1z M924.8,1033c-70.4-9.8-87-102-75-172.8
	s50.7-88.9,82.6-87c32,1.9,10.2,26.2,10.2,26.2c-87,113.2,14.7,216.2,14.7,216.2C974.9,1037.7,924.8,1033,924.8,1033z M1072.4,895.5
	c-1.3,45.8-2.6,51.1-9.3,51.8c0,0-38.7,10-56.7-44c0,0-3.3-66,56.7-60C1063,843.3,1073.7,849.6,1072.4,895.5z M1475.7,990.6h-361.3
	V799.3h361.3V990.6z M1730.4,990.6c0,0-21.3,40-61.3,42s-143.3,0-143.3,0s-3.3,0.7-6-6.7c-2.5-7-0.3-17.6,0-18.6c-0.4,0,0-0.1,0-0.1
	s0,0,0,0.1c0.9-0.1,6.3-1,31.4-6.1c36-7.3,88-43.3,86.7-102.7c-1.3-59.3-30.7-112-118-107.3v-14.7H1669c0,0,54,10,64,46
	C1733,822.6,1773.7,888.6,1730.4,990.6z M1525,843.3c0,0,48-10.7,58,51.7c0,0-4.7,55.7-58,52.3C1525,947.3,1508.4,887.9,1525,843.3z
	"/>
<text transform="matrix(0.8894 0 0 1 1153.0352 893.0001)" class="st1 st2 st3">NIte Owl</text>
<text transform="matrix(1.2211 0 0 1 1195.7461 974.1417)" class="st1 st2 st4">Video</text>
<g>
	<text transform="matrix(0.8894 0 0 1 1153.0352 893.0001)" class="st5 st2 st3">NIte Owl</text>
	<text transform="matrix(1.2211 0 0 1 1195.7461 974.1417)" class="st5 st2 st4">Video</text>
</g>
</svg>
